<svg version="1.1" xmlns="http://www.w3.org/2000/svg" xmlns:xlink="http://www.w3.org/1999/xlink" width="40" height="40" viewBox="0,0,256,256"><g fill="#ffffff" fill-rule="nonzero" stroke="none" stroke-width="1" stroke-linecap="butt" stroke-linejoin="miter" stroke-miterlimit="10" stroke-dasharray="" stroke-dashoffset="0" font-family="none" font-weight="none" font-size="none" text-anchor="none" style="mix-blend-mode: normal"><g transform="translate(-5.33331,-5.33339) scale(6.4,6.4)"><g id="Bill"><path d="M33.7933,25.0883l-1.2933,0.6467l-1.2933,-0.6467c-0.1159,-0.058 -0.2438,-0.0883 -0.3734,-0.0883c-0.1296,0 -0.2574,0.0303 -0.3733,0.0883l-1.2933,0.6467l-0.8334,-0.4167v-17.81831c0,-0.1421 -0.0363,-0.28185 -0.1056,-0.40595c-0.0692,-0.1241 -0.169,-0.22844 -0.2899,-0.30309c-0.1209,-0.07466 -0.2589,-0.11715 -0.4009,-0.12345c-0.142,-0.00629 -0.2832,0.02383 -0.4102,0.08749l-1.2934,0.64667l-1.2933,-0.64667c-0.1159,-0.05807 -0.2437,-0.0883 -0.3733,-0.0883c-0.1297,0 -0.2575,0.03023 -0.3734,0.0883l-1.2933,0.64667l-1.2933,-0.64667c-0.1159,-0.05807 -0.2438,-0.0883 -0.3734,-0.0883c-0.1296,0 -0.2574,0.03023 -0.3733,0.0883l-1.2933,0.64667l-1.2934,-0.64667c-0.1159,-0.05807 -0.2437,-0.0883 -0.3733,-0.0883c-0.1296,0 -0.2575,0.03023 -0.3733,0.0883l-1.2934,0.64667l-1.2933,-0.64667c-0.1159,-0.05807 -0.2437,-0.0883 -0.3733,-0.0883c-0.1297,0 -0.2575,0.03023 -0.3734,0.0883l-1.2933,0.64667l-1.2933,-0.64667c-0.1159,-0.05807 -0.2438,-0.0883 -0.3734,-0.0883c-0.1296,0 -0.2574,0.03023 -0.3733,0.0883l-1.29334,0.64667l-1.29333,-0.64667c-0.12705,-0.06366 -0.26827,-0.09378 -0.41023,-0.08749c-0.14197,0.0063 -0.27997,0.04879 -0.40089,0.12345c-0.12092,0.07465 -0.22073,0.17899 -0.28996,0.30309c-0.06924,0.1241 -0.10558,0.26385 -0.10559,0.40595v23.33331c0,1.1051 0.43899,2.1649 1.22039,2.9463c0.7814,0.7814 1.84121,1.2204 2.94625,1.2204h20c1.1051,0 2.1649,-0.439 2.9463,-1.2204c0.7814,-0.7814 1.2204,-1.8412 1.2204,-2.9463v-5c0,-0.1421 -0.0364,-0.2818 -0.1056,-0.4059c-0.0692,-0.1241 -0.169,-0.2285 -0.29,-0.3031c-0.1209,-0.0747 -0.2589,-0.1172 -0.4008,-0.1235c-0.142,-0.0063 -0.2832,0.0239 -0.4103,0.0875zM17.5,16.6667c-0.0028,0.7368 -0.2496,1.452 -0.7019,2.0337c-0.4523,0.5816 -1.0846,0.9971 -1.7981,1.1813v7.6183c0,0.221 -0.0878,0.433 -0.2441,0.5892c-0.1563,0.1563 -0.3682,0.2441 -0.5892,0.2441c-0.221,0 -0.433,-0.0878 -0.5893,-0.2441c-0.1563,-0.1562 -0.2441,-0.3682 -0.2441,-0.5892v-7.6183c-0.7134,-0.1842 -1.3457,-0.5997 -1.7981,-1.1813c-0.4523,-0.5817 -0.6991,-1.2969 -0.7019,-2.0337v-2.5c0,-0.2211 0.0878,-0.433 0.2441,-0.5893c0.1563,-0.1563 0.3683,-0.2441 0.5893,-0.2441c0.221,0 0.4329,0.0878 0.5892,0.2441c0.1563,0.1563 0.2441,0.3682 0.2441,0.5893v2.5c0.0033,0.2874 0.082,0.5689 0.2283,0.8163c0.1462,0.2474 0.3549,0.4522 0.605,0.5937v-3.91c0,-0.2211 0.0878,-0.433 0.2441,-0.5893c0.1563,-0.1563 0.3683,-0.2441 0.5893,-0.2441c0.221,0 0.4329,0.0878 0.5892,0.2441c0.1563,0.1563 0.2441,0.3682 0.2441,0.5893v3.91c0.2502,-0.1415 0.4588,-0.3463 0.6051,-0.5937c0.1462,-0.2474 0.2249,-0.5289 0.2282,-0.8163v-2.5c0,-0.2211 0.0878,-0.433 0.2441,-0.5893c0.1563,-0.1563 0.3683,-0.2441 0.5893,-0.2441c0.221,0 0.4329,0.0878 0.5892,0.2441c0.1563,0.1563 0.2441,0.3682 0.2441,0.5893zM23.2583,23.3783l-2.425,0.6067v3.515c0,0.221 -0.0878,0.433 -0.244,0.5892c-0.1563,0.1563 -0.3683,0.2441 -0.5893,0.2441c-0.221,0 -0.433,-0.0878 -0.5893,-0.2441c-0.1562,-0.1562 -0.244,-0.3682 -0.244,-0.5892v-13.3333c-0.0003,-0.1651 0.0484,-0.3265 0.1399,-0.4638c0.0916,-0.1373 0.2218,-0.2444 0.3743,-0.3075c0.1524,-0.0632 0.3202,-0.0798 0.4821,-0.0475c0.1618,0.0323 0.3104,0.1119 0.427,0.2288c1.1376,1.1315 2.0395,2.4775 2.6535,3.96c0.6139,1.4825 0.9277,3.072 0.9232,4.6766c0.0005,0.2678 -0.0887,0.528 -0.2533,0.7391c-0.1647,0.2112 -0.3953,0.3611 -0.6551,0.4259zM33.3333,30.8333c0,0.6631 -0.2634,1.2989 -0.7322,1.7678c-0.4688,0.4688 -1.1047,0.7322 -1.7678,0.7322c-0.663,0 -1.2989,-0.2634 -1.7677,-0.7322c-0.4689,-0.4689 -0.7323,-1.1047 -0.7323,-1.7678v-3.6516l0.46,0.23c0.1159,0.058 0.2437,0.0883 0.3734,0.0883c0.1296,0 0.2574,-0.0303 0.3733,-0.0883l1.2933,-0.6467l1.2934,0.6467c0.1158,0.058 0.2437,0.0883 0.3733,0.0883c0.1296,0 0.2574,-0.0303 0.3733,-0.0883l0.46,-0.23z" id="Vector"></path></g></g></g></svg>