<svg version="1.1" xmlns="http://www.w3.org/2000/svg" xmlns:xlink="http://www.w3.org/1999/xlink" width="40" height="40" viewBox="0,0,256,256"><g fill="#a88989" fill-rule="nonzero" stroke="none" stroke-width="1" stroke-linecap="butt" stroke-linejoin="miter" stroke-miterlimit="10" stroke-dasharray="" stroke-dashoffset="0" font-family="none" font-weight="none" font-size="none" text-anchor="none" style="mix-blend-mode: normal"><g transform="translate(-5.33325,-5.35258) scale(6.4,6.4)"><g id="Restaurant Location"><path d="M8.33334,30.8333c0,2.8634 6.47996,4.1667 12.49996,4.1667c6.02,0 12.5,-1.3033 12.5,-4.1667c0,-2.2733 -3.935,-3.3 -6.77,-3.7433l1.9367,-1.9233c1.5152,-1.5151 2.547,-3.4454 2.9651,-5.5469c0.4181,-2.1015 0.2036,-4.2797 -0.6163,-6.2593c-0.8199,-1.9796 -2.2085,-3.67158 -3.99,-4.86201c-1.7816,-1.19042 -3.8761,-1.82581 -6.0188,-1.82581c-2.1427,0 -4.2372,0.63539 -6.0188,1.82581c-1.7815,1.19043 -3.1701,2.88241 -3.99,4.86201c-0.8199,1.9796 -1.03439,4.1578 -0.6163,6.2593c0.4181,2.1015 1.4499,4.0318 2.9651,5.5469l1.93,1.93c-2.8417,0.4366 -6.77666,1.4633 -6.77666,3.7366zM22.5,13.3333c0,-0.1547 0.0431,-0.3064 0.1245,-0.4381c0.0813,-0.1316 0.1977,-0.238 0.3362,-0.3072c0.1384,-0.0692 0.2933,-0.0985 0.4475,-0.0846c0.1541,0.0139 0.3013,0.0704 0.4251,0.1633c1.032,0.7742 1.8889,1.7575 2.5147,2.8856c0.6258,1.1282 1.0064,2.3757 1.117,3.661c0.0366,0.3949 -0.0698,0.7898 -0.2998,1.1128c-0.2301,0.323 -0.5684,0.5527 -0.9535,0.6472l-2.045,0.5117v1.8483c0,0.221 -0.0878,0.433 -0.2441,0.5893c-0.1563,0.1563 -0.3683,0.2441 -0.5893,0.2441c-0.221,0 -0.4329,-0.0878 -0.5892,-0.2441c-0.1563,-0.1563 -0.2441,-0.3683 -0.2441,-0.5893zM15,15v-1.6667c0,-0.221 0.0878,-0.4329 0.2441,-0.5892c0.1563,-0.1563 0.3682,-0.2441 0.5892,-0.2441c0.221,0 0.433,0.0878 0.5893,0.2441c0.1563,0.1563 0.2441,0.3682 0.2441,0.5892v1.6667c0.0033,0.2874 0.082,0.5689 0.2282,0.8163c0.1463,0.2475 0.3549,0.4522 0.6051,0.5937v-3.0767c0,-0.221 0.0878,-0.4329 0.2441,-0.5892c0.1563,-0.1563 0.3682,-0.2441 0.5892,-0.2441c0.221,0 0.433,0.0878 0.5893,0.2441c0.1563,0.1563 0.2441,0.3682 0.2441,0.5892v3.0767c0.2501,-0.1415 0.4588,-0.3462 0.605,-0.5937c0.1463,-0.2474 0.225,-0.5289 0.2283,-0.8163v-1.6667c0,-0.221 0.0878,-0.4329 0.2441,-0.5892c0.1563,-0.1563 0.3682,-0.2441 0.5892,-0.2441c0.221,0 0.433,0.0878 0.5893,0.2441c0.1563,0.1563 0.2441,0.3682 0.2441,0.5892v1.6667c-0.0028,0.7368 -0.2496,1.452 -0.7019,2.0337c-0.4524,0.5817 -1.0847,0.9971 -1.7981,1.1813v5.1183c0,0.221 -0.0878,0.433 -0.2441,0.5893c-0.1563,0.1563 -0.3683,0.2441 -0.5893,0.2441c-0.221,0 -0.4329,-0.0878 -0.5892,-0.2441c-0.1563,-0.1563 -0.2441,-0.3683 -0.2441,-0.5893v-5.1183c-0.7135,-0.1842 -1.3458,-0.5996 -1.7981,-1.1813c-0.4523,-0.5817 -0.6991,-1.2969 -0.7019,-2.0337zM16.59,28.5767l2.475,2.4766c0.2322,0.2323 0.5078,0.4166 0.8113,0.5424c0.3034,0.1257 0.6286,0.1904 0.957,0.1904c0.3285,0 0.6537,-0.0647 0.9571,-0.1904c0.3034,-0.1258 0.5791,-0.3101 0.8113,-0.5424l2.475,-2.4766c4.58,0.53 6.59,1.7366 6.59,2.2566c0,0.7467 -3.685,2.5 -10.8334,2.5c-7.1483,0 -10.8333,-1.7533 -10.8333,-2.5c0,-0.52 2.01,-1.7266 6.59,-2.2566z" id="Vector"></path></g></g></g></svg>