<svg version="1.1" xmlns="http://www.w3.org/2000/svg" xmlns:xlink="http://www.w3.org/1999/xlink" width="40" height="40" viewBox="0,0,256,256"><g fill="#ffffff" fill-rule="nonzero" stroke="none" stroke-width="1" stroke-linecap="butt" stroke-linejoin="miter" stroke-miterlimit="10" stroke-dasharray="" stroke-dashoffset="0" font-family="none" font-weight="none" font-size="none" text-anchor="none" style="mix-blend-mode: normal"><g transform="translate(-5.32264,-21.34688) scale(6.4,6.4)"><g id="Delivery Scooter"><path d="M6.66666,29.1667c0,0.663 0.2634,1.2989 0.73224,1.7677c0.46884,0.4689 1.10472,0.7323 1.76776,0.7323h0.91834c0.1913,0.9419 0.7023,1.7887 1.4464,2.397c0.7442,0.6082 1.6758,0.9405 2.6369,0.9405c0.9612,0 1.8927,-0.3323 2.6369,-0.9405c0.7442,-0.6083 1.2552,-1.4551 1.4465,-2.397h5.2483c1.1309,-0.0079 2.2349,-0.3456 3.1767,-0.9717c0,0.0467 -0.0134,0.0917 -0.0134,0.1383c-0.0006,0.8966 0.2881,1.7695 0.8231,2.489c0.535,0.7195 1.2878,1.2472 2.1465,1.5048c0.8588,0.2575 1.7778,0.2312 2.6205,-0.075c0.8426,-0.3063 1.564,-0.8762 2.057,-1.6251c0.4929,-0.749 0.7311,-1.6369 0.6793,-2.532c-0.0519,-0.8951 -0.3911,-1.7495 -0.9672,-2.4365c-0.5762,-0.687 -1.3586,-1.1697 -2.231,-1.3767c-0.8724,-0.2069 -1.7882,-0.1268 -2.6115,0.2282c0.1406,-0.623 0.1766,-1.2651 0.1067,-1.9l-0.645,-5.1667c0.1724,0.0378 0.3484,0.0568 0.525,0.0567h0.8333c0.442,0 0.8659,-0.1756 1.1785,-0.4882c0.3126,-0.3125 0.4882,-0.7364 0.4882,-1.1785v-1.6666c0,-0.4421 -0.1756,-0.866 -0.4882,-1.1785c-0.3126,-0.3126 -0.7365,-0.4882 -1.1785,-0.4882h-0.8333c-0.3862,0.0018 -0.7667,0.093 -1.1116,0.2665c-0.345,0.1735 -0.6451,0.4246 -0.8768,0.7335l-0.2683,-0.2683c-0.4698,-0.4667 -1.1045,-0.7296 -1.7667,-0.7317h-0.9766c-0.221,0 -0.433,0.0878 -0.5893,0.2441c-0.1563,0.1563 -0.2441,0.3682 -0.2441,0.5892c0,0.2211 0.0878,0.433 0.2441,0.5893c0.1563,0.1563 0.3683,0.2441 0.5893,0.2441h0.9766c0.2206,0 0.4322,0.0875 0.5884,0.2433l0.9733,0.9733c0.025,0.155 0.6233,4.9634 0.9317,7.4334c0.0732,0.5864 0.0209,1.1817 -0.1535,1.7463c-0.1744,0.5647 -0.4669,1.0858 -0.8581,1.5287c-0.3913,0.4429 -0.8723,0.7976 -1.4111,1.0404c-0.5387,0.2428 -1.123,0.3682 -1.714,0.3679h-0.3167l-1.5166,-7.5817v-1.585c0,-0.663 -0.2634,-1.2989 -0.7323,-1.7677c-0.4688,-0.4689 -1.1047,-0.7323 -1.7677,-0.7323h-3.3334v-4.1666c0,-0.6631 -0.2634,-1.299 -0.7322,-1.7678c-0.4688,-0.4688 -1.1047,-0.7322 -1.7678,-0.7322h-4.16664c-0.66304,0 -1.29892,0.2634 -1.76776,0.7322c-0.46884,0.4688 -0.73224,1.1047 -0.73224,1.7678v6.6666c0,0.6631 0.2634,1.299 0.73224,1.7678c0.46884,0.4688 1.10472,0.7322 1.76776,0.7322h0.34334c-0.88267,0.6954 -1.59684,1.5812 -2.08919,2.5913c-0.49235,1.0101 -0.75014,2.1184 -0.75415,3.2421zM30.8333,28.3333c0.4945,0 0.9778,0.1467 1.389,0.4214c0.4111,0.2747 0.7315,0.6651 0.9207,1.1219c0.1892,0.4568 0.2388,0.9595 0.1423,1.4445c-0.0965,0.4849 -0.3346,0.9304 -0.6842,1.28c-0.3496,0.3496 -0.7951,0.5877 -1.28,0.6842c-0.485,0.0965 -0.9877,0.047 -1.4445,-0.1423c-0.4568,-0.1892 -0.8472,-0.5096 -1.1219,-0.9207c-0.2747,-0.4112 -0.4214,-0.8945 -0.4214,-1.389c0,-0.663 0.2634,-1.2989 0.7323,-1.7677c0.4688,-0.4689 1.1047,-0.7323 1.7677,-0.7323zM15.8333,20h3.3334c0.221,0 0.4329,0.0878 0.5892,0.2441c0.1563,0.1563 0.2441,0.3682 0.2441,0.5892v0.8334h-4.1667zM16.5133,31.6667c-0.1697,0.4871 -0.4868,0.9093 -0.9073,1.2081c-0.4204,0.2988 -0.9235,0.4593 -1.4393,0.4593c-0.5159,0 -1.0189,-0.1605 -1.4394,-0.4593c-0.4205,-0.2988 -0.7376,-0.721 -0.9073,-1.2081zM8.33333,14.1667c0,-0.221 0.0878,-0.433 0.24408,-0.5893c0.15628,-0.1563 0.36824,-0.2441 0.58925,-0.2441h4.16664c0.221,0 0.433,0.0878 0.5893,0.2441c0.1563,0.1563 0.2441,0.3683 0.2441,0.5893v0.8333h-5.83337zM8.33333,16.6667h5.83337v1.6416h-5.83337zM9.16666,21.6667c-0.22101,0 -0.43297,-0.0878 -0.58925,-0.2441c-0.15628,-0.1563 -0.24408,-0.3682 -0.24408,-0.5893v-0.8583h5.83337v1.6917z" id="Vector"></path></g></g></g></svg>