<svg version="1.1" xmlns="http://www.w3.org/2000/svg" xmlns:xlink="http://www.w3.org/1999/xlink" width="40" height="40" viewBox="0,0,256,256"><g fill="#ffffff" fill-rule="nonzero" stroke="none" stroke-width="1" stroke-linecap="butt" stroke-linejoin="miter" stroke-miterlimit="10" stroke-dasharray="" stroke-dashoffset="0" font-family="none" font-weight="none" font-size="none" text-anchor="none" style="mix-blend-mode: normal"><g transform="translate(-5.33331,-14.11387) scale(6.4,6.4)"><g id="Order Discussion"><path d="M32.5,16.6667h-0.8333v-4.1667c0,-0.663 -0.2634,-1.2989 -0.7323,-1.7678c-0.4688,-0.4688 -1.1047,-0.7322 -1.7677,-0.7322h-20.00004c-0.66304,0 -1.29892,0.2634 -1.76776,0.7322c-0.46884,0.4689 -0.73224,1.1048 -0.73224,1.7678v13.3333c0,0.6631 0.2634,1.299 0.73224,1.7678c0.46884,0.4688 1.10472,0.7322 1.76776,0.7322h0.83334v1.5c0.0007,0.2469 0.0743,0.488 0.2117,0.6931c0.1374,0.2051 0.3323,0.365 0.5603,0.4596c0.2281,0.0946 0.479,0.1197 0.7212,0.072c0.2422,-0.0476 0.4649,-0.1658 0.6401,-0.3397l2.3784,-2.385h2.155v0.8334c0,0.663 0.2634,1.2989 0.7322,1.7677c0.4688,0.4689 1.1047,0.7323 1.7678,0.7323h7.9883l2.3783,2.3783c0.1745,0.1743 0.3967,0.2931 0.6386,0.3414c0.2418,0.0483 0.4926,0.0239 0.7207,-0.07c0.228,-0.0939 0.4232,-0.2531 0.561,-0.4577c0.1377,-0.2046 0.2119,-0.4454 0.2131,-0.692v-1.5h0.8333c0.663,0 1.2989,-0.2634 1.7678,-0.7323c0.4688,-0.4688 0.7322,-1.1047 0.7322,-1.7677v-10c0,-0.6631 -0.2634,-1.299 -0.7322,-1.7678c-0.4689,-0.4688 -1.1048,-0.7322 -1.7678,-0.7322zM30,25.8333c0,0.221 -0.0878,0.433 -0.2441,0.5893c-0.1563,0.1563 -0.3682,0.2441 -0.5892,0.2441h-15c-0.1095,-0.0002 -0.218,0.0212 -0.3193,0.0629c-0.1012,0.0418 -0.1932,0.1031 -0.2707,0.1804l-1.91,1.9117v-1.3217c0,-0.221 -0.0878,-0.433 -0.2441,-0.5893c-0.1563,-0.1562 -0.3683,-0.244 -0.5893,-0.244h-1.66664c-0.22101,0 -0.43297,-0.0878 -0.58925,-0.2441c-0.15628,-0.1563 -0.24408,-0.3683 -0.24408,-0.5893v-13.3333c0,-0.221 0.0878,-0.433 0.24408,-0.5893c0.15628,-0.1562 0.36824,-0.244 0.58925,-0.244h20.00004c0.221,0 0.4329,0.0878 0.5892,0.244c0.1563,0.1563 0.2441,0.3683 0.2441,0.5893z" id="Vector"></path><path d="M18.3333,14.1667c-0.221,0 -0.4329,0.0878 -0.5892,0.244c-0.1563,0.1563 -0.2441,0.3683 -0.2441,0.5893v1.6667c-0.0036,0.2873 -0.0825,0.5687 -0.2287,0.816c-0.1462,0.2474 -0.3547,0.4522 -0.6046,0.594v-3.0767c0,-0.221 -0.0878,-0.433 -0.2441,-0.5893c-0.1563,-0.1562 -0.3683,-0.244 -0.5893,-0.244c-0.221,0 -0.4329,0.0878 -0.5892,0.244c-0.1563,0.1563 -0.2441,0.3683 -0.2441,0.5893v3.0767c-0.25,-0.1418 -0.4584,-0.3466 -0.6046,-0.594c-0.1462,-0.2473 -0.2251,-0.5287 -0.2287,-0.816v-1.6667c0,-0.221 -0.0878,-0.433 -0.2441,-0.5893c-0.1563,-0.1562 -0.3683,-0.244 -0.5893,-0.244c-0.221,0 -0.4329,0.0878 -0.5892,0.244c-0.1563,0.1563 -0.2441,0.3683 -0.2441,0.5893v1.6667c0.0028,0.7368 0.2496,1.452 0.7019,2.0337c0.4523,0.5816 1.0846,0.997 1.7981,1.1813v3.4516c0,0.221 0.0878,0.433 0.2441,0.5893c0.1563,0.1563 0.3682,0.2441 0.5892,0.2441c0.221,0 0.433,-0.0878 0.5893,-0.2441c0.1563,-0.1563 0.2441,-0.3683 0.2441,-0.5893v-3.4516c0.7134,-0.1843 1.3457,-0.5997 1.7981,-1.1813c0.4523,-0.5817 0.6991,-1.2969 0.7019,-2.0337v-1.6667c0,-0.221 -0.0878,-0.433 -0.2441,-0.5893c-0.1563,-0.1562 -0.3683,-0.244 -0.5893,-0.244zM22.04,14.255c-0.127,-0.0637 -0.2683,-0.0938 -0.4102,-0.0875c-0.142,0.0063 -0.28,0.0488 -0.4009,0.1234c-0.1209,0.0747 -0.2208,0.179 -0.29,0.3031c-0.0692,0.1241 -0.1056,0.2639 -0.1056,0.406v8.3333c0,0.221 0.0878,0.433 0.2441,0.5893c0.1563,0.1563 0.3683,0.2441 0.5893,0.2441c0.221,0 0.4329,-0.0878 0.5892,-0.2441c0.1563,-0.1563 0.2441,-0.3683 0.2441,-0.5893v-1.015l2.3867,-0.5983c0.2879,-0.0781 0.5397,-0.2537 0.7124,-0.4969c0.1726,-0.2433 0.2554,-0.5389 0.2342,-0.8364c0.0022,-1.2741 -0.3518,-2.5234 -1.0221,-3.6069c-0.6703,-1.0835 -1.6302,-1.958 -2.7712,-2.5248z" id="Vector_2"></path></g></g></g></svg>