<svg version="1.1" xmlns="http://www.w3.org/2000/svg" xmlns:xlink="http://www.w3.org/1999/xlink" width="40" height="40" viewBox="0,0,256,256"><g fill="#fffeff" fill-rule="nonzero" stroke="none" stroke-width="1" stroke-linecap="butt" stroke-linejoin="miter" stroke-miterlimit="10" stroke-dasharray="" stroke-dashoffset="0" font-family="none" font-weight="none" font-size="none" text-anchor="none" style="mix-blend-mode: normal"><g transform="translate(-5.33429,-5.33324) scale(6.4,6.4)"><g id="24 Hour Food Delivery"><path d="M20,10.8333v9.655l-6.4233,6.4217c-0.1565,0.1565 -0.2444,0.3687 -0.2444,0.59c0,0.2213 0.0879,0.4335 0.2444,0.59c0.1565,0.1565 0.3687,0.2444 0.59,0.2444c0.2213,0 0.4335,-0.0879 0.59,-0.2444l6.6666,-6.6667c0.0774,-0.0775 0.1387,-0.1695 0.1804,-0.2707c0.0418,-0.1013 0.0632,-0.2098 0.063,-0.3193v-10c0,-0.221 -0.0878,-0.4329 -0.2441,-0.5892c-0.1563,-0.1563 -0.3682,-0.2441 -0.5893,-0.2441c-0.221,0 -0.4329,0.0878 -0.5892,0.2441c-0.1563,0.1563 -0.2441,0.3682 -0.2441,0.5892zM34.1667,26.6667h-10c-0.221,0 -0.433,0.0878 -0.5893,0.244c-0.1563,0.1563 -0.2441,0.3683 -0.2441,0.5893c0,0.221 0.0878,0.433 0.2441,0.5893c0.1563,0.1562 0.3683,0.244 0.5893,0.244h10c0.221,0 0.4329,-0.0878 0.5892,-0.244c0.1563,-0.1563 0.2441,-0.3683 0.2441,-0.5893c0,-0.221 -0.0878,-0.433 -0.2441,-0.5893c-0.1563,-0.1562 -0.3682,-0.244 -0.5892,-0.244z" id="Vector"></path><path d="M32.5,10c-0.221,0 -0.433,0.0878 -0.5893,0.2441c-0.1562,0.1563 -0.244,0.3682 -0.244,0.5892v0.9134c-1.3191,-1.5936 -2.9746,-2.87548 -4.8476,-3.75376c-1.8729,-0.87829 -3.9171,-1.33121 -5.9858,-1.32627c-2.3297,0.00005 -4.6235,0.57467 -6.6781,1.67296c-2.0546,1.09829 -3.8067,2.68637 -5.10097,4.62347c-1.29428,1.9372 -2.09083,4.1637 -2.3191,6.4822c-0.22826,2.3185 0.11881,4.6576 1.01046,6.81c0.89165,2.1523 2.30041,4.0516 4.10141,5.5295c1.801,1.4779 3.9386,2.4888 6.2236,2.9432c2.2851,0.4543 4.6469,0.3382 6.8762,-0.3383c2.2294,-0.6764 4.2576,-1.8922 5.9049,-3.5397c0.1569,-0.1571 0.245,-0.3702 0.2448,-0.5923c-0.0002,-0.222 -0.0885,-0.4349 -0.2457,-0.5919c-0.1571,-0.1569 -0.3702,-0.245 -0.5922,-0.2448c-0.2221,0.0002 -0.435,0.0885 -0.5919,0.2457c-1.8001,1.8036 -4.1084,3.014 -6.6157,3.469c-2.5072,0.455 -5.0936,0.1328 -7.4127,-0.9233c-2.319,-1.0561 -4.2599,-2.7958 -5.5625,-4.9859c-1.30263,-2.1901 -1.90481,-4.7259 -1.72583,-7.2679c0.17897,-2.5419 1.13053,-4.9684 2.72723,-6.9543c1.5966,-1.986 3.7621,-3.43651 6.2062,-4.15727c2.4442,-0.72076 5.0502,-0.67732 7.469,0.1245c2.4188,0.80183 4.5347,2.32377 6.0643,4.36177h-1.65c-0.221,0 -0.433,0.0878 -0.5893,0.2441c-0.1563,0.1563 -0.2441,0.3683 -0.2441,0.5893c0,0.221 0.0878,0.4329 0.2441,0.5892c0.1563,0.1563 0.3683,0.2441 0.5893,0.2441h3.3333c0.221,0 0.433,-0.0878 0.5893,-0.2441c0.1562,-0.1563 0.244,-0.3682 0.244,-0.5892v-3.3334c0,-0.221 -0.0878,-0.4329 -0.244,-0.5892c-0.1563,-0.1563 -0.3683,-0.2441 -0.5893,-0.2441z" id="Vector_2"></path><path d="M29.1666,16.6667c-0.221,0 -0.4329,0.0878 -0.5892,0.244c-0.1563,0.1563 -0.2441,0.3683 -0.2441,0.5893v0.9067c-1.1871,0.172 -2.2925,0.705 -3.1664,1.5267c-0.8739,0.8217 -1.4739,1.8923 -1.7186,3.0666c-0.0495,0.2424 -0.0444,0.4929 0.015,0.7331c0.0594,0.2402 0.1715,0.4642 0.3282,0.6557c0.1567,0.1915 0.3541,0.3458 0.5778,0.4515c0.2238,0.1057 0.4682,0.1602 0.7157,0.1597h8.1667c0.2474,0.0005 0.4919,-0.054 0.7156,-0.1597c0.2238,-0.1057 0.4211,-0.26 0.5779,-0.4515c0.1567,-0.1915 0.2688,-0.4155 0.3281,-0.6557c0.0594,-0.2402 0.0645,-0.4907 0.015,-0.7331c-0.2449,-1.1748 -0.8454,-2.2457 -1.7199,-3.0674c-0.8745,-0.8218 -1.9807,-1.3545 -3.1684,-1.5259v-0.9067c0,-0.221 -0.0878,-0.433 -0.2441,-0.5893c-0.1563,-0.1562 -0.3682,-0.244 -0.5893,-0.244z" id="Vector_3"></path></g></g></g></svg>