<svg version="1.1" xmlns="http://www.w3.org/2000/svg" xmlns:xlink="http://www.w3.org/1999/xlink" width="40" height="40" viewBox="0,0,256,256"><g fill="#fffeff" fill-rule="nonzero" stroke="none" stroke-width="1" stroke-linecap="butt" stroke-linejoin="miter" stroke-miterlimit="10" stroke-dasharray="" stroke-dashoffset="0" font-family="none" font-weight="none" font-size="none" text-anchor="none" style="mix-blend-mode: normal"><g transform="translate(0,0.00016) scale(6.4,6.4)"><g id="Setting"><path d="M24.6437,26.3562l-0.075,-2.6562c0.5625,-0.1063 1.35,-1.0563 1.6688,-1.5625l-1.075,-2.4125c-0.5938,-0.0937 -1.825,-0.15 -2.2813,0.2l-1.925,-1.8312c0.3188,-0.4688 0.2063,-1.6938 0.0688,-2.275l-2.4688,-0.9438c-0.4812,0.3437 -1.3875,1.1813 -1.4625,1.75l-2.6562,0.0687c-0.1063,-0.5625 -1.0625,-1.3375 -1.5625,-1.6625l-2.4125,1.075c-0.0938,0.5938 -0.15,1.8251 0.2,2.2813l-1.825,1.925c-0.475,-0.3188 -1.7,-0.2 -2.28125,-0.0688l-0.94375,2.4626c0.34375,0.4937 1.18125,1.3875 1.74375,1.4687l0.075,2.6562c-0.55625,0.1126 -1.3375,1.0563 -1.6625,1.5625l1.08125,2.4125c0.5875,0.0938 1.81875,0.1438 2.275,-0.1937l1.925,1.8187c-0.3188,0.4688 -0.2,1.7001 -0.0688,2.2813l2.4625,0.9437c0.4875,-0.35 1.3938,-1.1874 1.4688,-1.75l2.6562,-0.075c0.1125,0.5688 1.0563,1.3438 1.5688,1.6625l2.4062,-1.0687c0.1,-0.6 0.1438,-1.825 -0.1937,-2.2813l1.8187,-1.9312c0.475,0.325 1.7,0.2062 2.2875,0.075l0.9375,-2.4688c-0.35,-0.4812 -1.1812,-1.3812 -1.75,-1.4625zM18.8187,26.3375c-0.2126,0.5575 -0.5857,1.0394 -1.0722,1.3849c-0.4866,0.3454 -1.0646,0.5388 -1.661,0.5557c-0.5964,0.0169 -1.1845,-0.1434 -1.6898,-0.4607c-0.5053,-0.3173 -0.9052,-0.7773 -1.1491,-1.3219c-0.2438,-0.5445 -0.3208,-1.1492 -0.221,-1.7374c0.0998,-0.5883 0.3718,-1.1338 0.7815,-1.5675c0.4098,-0.4337 0.939,-0.7361 1.5207,-0.8691c0.5817,-0.1329 1.1897,-0.0904 1.7472,0.1222c0.3705,0.1407 0.7096,0.3532 0.9979,0.6252c0.2883,0.2719 0.52,0.5981 0.682,0.9599c0.162,0.3617 0.251,0.7518 0.262,1.148c0.0109,0.3961 -0.0564,0.7906 -0.1982,1.1607zM34.375,9.1625c-0.2938,-0.24375 -0.9875,-0.675 -1.3313,-0.5625l-1.0562,-1.8c0.2625,-0.24375 0.225,-1.0625 0.1562,-1.43125l-1.8062,-1.025c-0.3563,0.13125 -1.075,0.51875 -1.15,0.86875l-2.0875,0.01875c-0.0813,-0.35 -0.8063,-0.725 -1.1625,-0.85625l-1.7875,1.05625c-0.0625,0.36875 -0.0875,1.1875 0.175,1.43125l-1.025,1.8125c-0.35,-0.10625 -1.0375,0.3375 -1.325,0.58125l0.0187,2.07495c0.2938,0.2438 0.9875,0.6688 1.3313,0.5626l1.0562,1.8c-0.2625,0.2437 -0.225,1.0625 -0.1562,1.4312l1.8062,1.025c0.35,-0.1313 1.0688,-0.5187 1.15,-0.8688l2.0813,-0.0187c0.0875,0.35 0.8125,0.725 1.1687,0.8562l1.7875,-1.0562c0.0625,-0.375 0.0875,-1.1875 -0.1812,-1.4313l1.0312,-1.8125c0.3438,0.1 1.0313,-0.3375 1.3188,-0.5812zM28.1812,11.8813c-0.3229,-0.0007 -0.6385,-0.097 -0.9068,-0.2768c-0.2683,-0.1798 -0.4773,-0.4351 -0.6006,-0.7336c-0.1233,-0.2985 -0.1554,-0.6269 -0.0922,-0.94364c0.0631,-0.31675 0.2187,-0.60768 0.4471,-0.83606c0.2284,-0.22838 0.5193,-0.38398 0.8361,-0.44714c0.3167,-0.06316 0.6451,-0.03106 0.9436,0.09225c0.2985,0.12332 0.5538,0.33232 0.7336,0.60061c0.1798,0.26829 0.2761,0.58385 0.2767,0.90678c0.0005,0.2152 -0.0415,0.4284 -0.1236,0.6273c-0.0821,0.1989 -0.2027,0.3796 -0.3549,0.5317c-0.1521,0.1522 -0.3328,0.2728 -0.5317,0.3549c-0.1989,0.0821 -0.4121,0.1241 -0.6273,0.1237z" id="Process"></path></g></g></g></svg>